<?xml version="1.0" encoding="utf-8"?>
<!-- Generator: Adobe Illustrator 26.0.2, SVG Export Plug-In . SVG Version: 6.00 Build 0)  -->
<svg version="1.1" id="Layer_1" xmlns="http://www.w3.org/2000/svg" xmlns:xlink="http://www.w3.org/1999/xlink" x="0px" y="0px"
	 viewBox="0 0 24 24" style="enable-background:new 0 0 24 24;" xml:space="preserve">
<style type="text/css">
	.st0{fill:#DDE6E8;}
</style>
<path class="st0" d="M5.7,3C4.8,3,4,3.8,4,4.8v14.5c0,1,0.8,1.8,1.8,1.8h3.5c1,0,1.8-0.8,1.8-1.8V4.8c0-1-0.8-1.8-1.8-1.8
	C9.2,3,5.7,3,5.7,3z M14.7,3c-1,0-1.8,0.8-1.8,1.8v14.5c0,1,0.8,1.8,1.8,1.8h3.5c1,0,1.8-0.8,1.8-1.8V4.8c0-1-0.8-1.8-1.8-1.8H14.7z
	"/>
</svg>
