<?xml version="1.0" encoding="utf-8"?>
<!-- Generator: Adobe Illustrator 26.0.2, SVG Export Plug-In . SVG Version: 6.00 Build 0)  -->
<svg version="1.1" id="Layer_1" xmlns="http://www.w3.org/2000/svg" xmlns:xlink="http://www.w3.org/1999/xlink" x="0px" y="0px"
	 viewBox="0 0 24 24" style="enable-background:new 0 0 24 24;" xml:space="preserve">
<style type="text/css">
	.st0{fill:#DDE6E8;}
</style>
<path class="st0" d="M12,2c5.5,0,10,4.5,10,10s-4.5,10-10,10S2,17.5,2,12S6.5,2,12,2z M15.5,8.5L15.5,8.5c-0.3-0.3-0.7-0.3-1-0.1
	l-0.1,0.1L12,10.9L9.5,8.5L9.4,8.4c-0.3-0.2-0.6-0.2-0.9,0L8.5,8.5L8.4,8.6c-0.2,0.3-0.2,0.6,0,0.9l0.1,0.1l2.5,2.5l-2.5,2.5
	l-0.1,0.1c-0.2,0.3-0.2,0.6,0,0.9l0.1,0.1l0.1,0.1c0.3,0.2,0.6,0.2,0.9,0l0.1-0.1l2.5-2.5l2.5,2.5l0.1,0.1c0.3,0.2,0.6,0.2,0.9,0
	l0.1-0.1l0.1-0.1c0.2-0.3,0.2-0.6,0-0.9l-0.1-0.1L13.1,12l2.5-2.5l0.1-0.1C15.8,9.2,15.8,8.8,15.5,8.5L15.5,8.5L15.5,8.5
	C15.4,8.4,15.5,8.5,15.5,8.5z"/>
</svg>
