<?xml version="1.0" encoding="utf-8"?>
<!-- Generator: Adobe Illustrator 26.0.2, SVG Export Plug-In . SVG Version: 6.00 Build 0)  -->
<svg version="1.1" id="Layer_1" xmlns="http://www.w3.org/2000/svg" xmlns:xlink="http://www.w3.org/1999/xlink" x="0px" y="0px"
	 viewBox="0 0 24 24" style="enable-background:new 0 0 24 24;" xml:space="preserve">
<style type="text/css">
	.st0{fill:#DDE6E8;}
</style>
<path class="st0" d="M12,2.2c0.7,0,1.5,0.1,2.2,0.3c0.3,0.1,0.5,0.3,0.6,0.6l0.2,1.5C15,5.4,15.7,6,16.5,5.9c0.1,0,0.3-0.1,0.4-0.1
	l1.4-0.6c0.3-0.1,0.6-0.1,0.9,0.2c1,1.1,1.8,2.4,2.2,3.8c0.1,0.3,0,0.6-0.3,0.8l-1.2,0.9c-0.6,0.5-0.7,1.3-0.3,1.9
	c0.1,0.1,0.2,0.2,0.3,0.3l1.2,0.9c0.3,0.2,0.4,0.5,0.3,0.8c-0.4,1.4-1.2,2.7-2.2,3.8c-0.2,0.2-0.6,0.3-0.8,0.2l-1.4-0.6
	c-0.7-0.3-1.5,0-1.8,0.7C15,19,15,19.2,14.9,19.3l-0.2,1.5c0,0.3-0.3,0.6-0.6,0.6c-1.4,0.3-3,0.3-4.4,0c-0.3-0.1-0.5-0.3-0.6-0.6
	l-0.2-1.5C9,18.6,8.3,18,7.5,18.1c-0.1,0-0.3,0.1-0.4,0.1l-1.4,0.6c-0.3,0.1-0.6,0.1-0.8-0.2c-1-1.1-1.8-2.4-2.2-3.8
	c-0.1-0.3,0-0.6,0.3-0.8l1.2-0.9c0.6-0.5,0.7-1.3,0.3-1.9c-0.1-0.1-0.2-0.2-0.3-0.3L2.9,10C2.7,9.8,2.6,9.5,2.7,9.1
	c0.4-1.4,1.2-2.7,2.2-3.8c0.2-0.2,0.6-0.3,0.8-0.2l1.4,0.6c0.7,0.3,1.5,0,1.8-0.7C9,4.9,9,4.8,9.1,4.7l0.2-1.5
	c0-0.3,0.3-0.6,0.6-0.7C10.5,2.3,11.3,2.3,12,2.2z M12,9c-1.7,0-3,1.3-3,3s1.3,3,3,3s3-1.3,3-3S13.7,9,12,9z"/>
</svg>
